<svg width="1250" height="1250" version="1.1" xmlns="http://www.w3.org/2000/svg" desc="Created with imagetracer.js version 1.2.6" ><path fill="rgb(0,0,0)" stroke="rgb(0,0,0)" stroke-width="1" opacity="0.9882352941176471" d="M 342.5 349 L 907.5 349 L 917.5 351 L 929.5 356 L 945 369.5 Q 951.7 377.3 955 388.5 L 957 398.5 L 957 408.5 Q 954.5 410 956 415.5 L 949 432.5 L 938.5 445 Q 928.1 454.6 911.5 458 L 338.5 458 Q 318.3 453.7 307 440.5 Q 293 426.5 293 398.5 L 295 388.5 L 299 378.5 Q 304.6 368.1 313.5 361 L 324.5 354 L 342.5 349 Z " /><path fill="rgb(0,0,0)" stroke="rgb(0,0,0)" stroke-width="1" opacity="0.9882352941176471" d="M 344.5 570 L 905.5 570 L 916.5 572 L 930.5 578 L 945 590.5 L 955 609.5 L 957 619.5 L 957 630.5 Q 952.9 654.4 937.5 667 L 922.5 676 L 904.5 680 L 345.5 680 L 327.5 676 Q 314.5 670.5 306 660.5 Q 298.9 652.1 295 640.5 L 293 629.5 L 293 620.5 L 295 609.5 L 301 596.5 L 312.5 583 L 327.5 574 L 344.5 570 Z " /><path fill="rgb(0,0,0)" stroke="rgb(0,0,0)" stroke-width="1" opacity="0.9882352941176471" d="M 338.5 792 L 911.5 792 Q 932.5 796.5 944 810.5 Q 952.2 820.2 956 834.5 L 957 851.5 L 955 861.5 L 951 871.5 Q 945.4 881.9 936.5 889 L 925.5 896 L 907.5 901 L 342.5 901 L 332.5 899 L 322.5 895 Q 312.1 889.4 305 880.5 Q 298.3 872.7 295 861.5 L 293 851.5 L 293 841.5 Q 295.5 840 294 834.5 L 301 817.5 L 311.5 805 Q 321.9 795.4 338.5 792 Z " /><path fill="rgb(0,0,0)" stroke="rgb(0,0,0)" stroke-width="1" opacity="0" d="M 0 0 L 1250 0 L 1250 1250 L 0 1250 L 0 0 Z M 343 349 L 325 354 L 314 361 Q 305 368 299 379 L 295 389 L 293 399 Q 293 427 307 441 Q 318 454 339 458 L 912 458 Q 928 455 939 445 L 949 433 L 956 416 Q 955 410 957 409 L 957 399 L 955 389 Q 952 377 945 370 L 930 356 L 918 351 L 908 349 L 343 349 Z M 345 570 L 328 574 L 313 583 L 301 597 L 295 610 L 293 621 L 293 630 L 295 641 Q 299 652 306 661 Q 314 671 328 676 L 346 680 L 905 680 L 923 676 L 938 667 Q 953 654 957 631 L 957 620 L 955 610 L 945 591 L 931 578 L 917 572 L 906 570 L 345 570 Z M 339 792 Q 322 795 312 805 L 301 818 L 294 835 Q 296 840 293 842 L 293 852 L 295 862 Q 298 873 305 881 Q 312 889 323 895 L 333 899 L 343 901 L 908 901 L 926 896 L 937 889 Q 945 882 951 872 L 955 862 L 957 852 L 956 835 Q 952 820 944 811 Q 932 797 912 792 L 339 792 Z " /></svg>