<svg width="300" height="300" version="1.1" xmlns="http://www.w3.org/2000/svg" desc="Created with imagetracer.js version 1.2.6" ><path fill="rgb(252,252,252)" stroke="rgb(252,252,252)" stroke-width="1" opacity="1" d="M 25.5 56 L 27.5 57 L 29.5 57 L 31 57.5 L 29 58.5 L 30.5 61 L 27 62 L 28 65.5 L 26 65.5 L 24.5 68 L 25 66.5 L 26 62.5 Q 22.5 61 25 59.5 L 24 57.5 L 25.5 56 Z M 26 57 L 26 60 Q 28 63 29 60 L 26 57 Z " /><path fill="rgb(252,252,252)" stroke="rgb(252,252,252)" stroke-width="1" opacity="1" d="M 33.5 56 L 34.5 58 L 33.5 56 Z " /><path fill="rgb(252,252,252)" stroke="rgb(252,252,252)" stroke-width="1" opacity="1" d="M 270.5 56 L 269.5 59 L 273.5 58 L 276 59 L 276 61 Q 279.7 59.5 279 62.5 Q 276.5 64 280 65.5 L 279.5 67 L 279 65 Q 276.3 66.1 277 63.5 L 274.5 60 L 271.5 59 L 269.5 60 Q 266 58 270.5 56 Z " /><path fill="rgb(252,252,252)" stroke="rgb(252,252,252)" stroke-width="1" opacity="1" d="M 276.5 56 L 280 57 Q 281.1 59.7 278.5 59 L 276.5 56 Z " /><path fill="rgb(252,252,252)" stroke="rgb(252,252,252)" stroke-width="1" opacity="1" d="M 38.5 60 L 38.5 62 L 40.5 61 L 255.5 61 L 256.5 60 L 257 62 L 40.5 62 L 38.5 64 L 38 62 Q 33.8 61 32.5 64 L 34.5 61 L 38.5 60 Z " /><path fill="rgb(252,252,252)" stroke="rgb(252,252,252)" stroke-width="1" opacity="1" d="M 262.5 60 Q 265.8 58.9 265 61.5 L 267 61.5 Q 264.8 62.8 267.5 64 Q 268.8 61.8 270 64.5 L 271 67.5 L 269 68.5 L 268.5 64 L 267.5 69 Q 268 63.5 264.5 62 L 262.5 63 L 259 61.5 L 262.5 60 Z " /><path fill="rgb(252,252,252)" stroke="rgb(252,252,252)" stroke-width="1" opacity="1" d="M 271.5 61 L 274 62 Q 275 65 272 64 L 271.5 61 Z " /><path fill="rgb(252,252,252)" stroke="rgb(252,252,252)" stroke-width="1" opacity="1" d="M 256.5 63 L 259 63.5 L 256.5 64 L 256.5 63 Z " /><path fill="rgb(252,252,252)" stroke="rgb(252,252,252)" stroke-width="1" opacity="1" d="M 264.5 64 L 267.5 72 Q 268.8 69.8 270 72.5 L 268.5 75 L 266.5 74 L 266 75.5 L 266.5 77 L 264 73.5 L 266 73.5 L 264.5 64 Z " /><path fill="rgb(252,252,252)" stroke="rgb(252,252,252)" stroke-width="1" opacity="1" d="M 275.5 64 L 276 66.5 L 275 66.5 L 275.5 64 Z " /><path fill="rgb(252,252,252)" stroke="rgb(252,252,252)" stroke-width="1" opacity="1" d="M 30.5 68 L 32 70.5 L 30 71.5 L 31 69.5 L 30.5 68 Z " /><path fill="rgb(252,252,252)" stroke="rgb(252,252,252)" stroke-width="1" opacity="1" d="M 274.5 68 L 275 71 L 277 71.5 L 275.5 72 L 274 71.5 L 275.5 74 L 277.5 73 L 279 76.5 L 278 76.5 Q 279.1 73.2 276.5 74 Q 273.7 75.3 276 76.5 L 275.5 80 L 274.5 76 L 271.5 82 L 271 80.5 L 271.5 76 Q 272.8 78.3 274 75.5 L 273 71.5 L 274.5 68 Z " /><path fill="rgb(252,252,252)" stroke="rgb(252,252,252)" stroke-width="1" opacity="1" d="M 277 68 Q 280 67 279 70 Q 276 71 277 68 Z " /><path fill="rgb(252,252,252)" stroke="rgb(252,252,252)" stroke-width="1" opacity="1" d="M 25.5 69 Q 28.1 68.2 27 71.5 L 28 74.5 Q 27.3 76.8 29.5 76 L 31.5 79 L 28.5 78 L 28.5 80 L 24 79.5 L 25 77.5 L 24.5 76 L 26 76.5 Q 26.8 74.3 24.5 75 L 24.5 74 L 27 72.5 L 24 70.5 L 25.5 69 Z M 28 76 L 26 79 L 28 78 L 28 76 Z " /><path fill="rgb(252,252,252)" stroke="rgb(252,252,252)" stroke-width="1" opacity="1" d="M 33.5 72 L 36 73.5 L 33.5 75 L 31 73.5 L 33.5 72 Z " /><path fill="rgb(252,252,252)" stroke="rgb(252,252,252)" stroke-width="1" opacity="1" d="M 37.5 72 L 40.5 74 L 257.5 74 L 257.5 72 L 263 73.5 L 257.5 75 L 40.5 75 L 39.5 76 Q 38.3 73.8 37 76.5 L 40 77.5 L 37.5 78 Q 35.7 74.9 34 76.5 L 39 73.5 L 37.5 72 Z " /><path fill="rgb(252,252,252)" stroke="rgb(252,252,252)" stroke-width="1" opacity="1" d="M 261.5 75 L 264 75.5 L 256.5 78 L 256.5 77 L 261.5 75 Z " /><path fill="rgb(252,252,252)" stroke="rgb(252,252,252)" stroke-width="1" opacity="1" d="M 267.5 79 L 270 79.5 L 269 81.5 L 269.5 83 L 265.5 84 L 265.5 83 L 268 81.5 L 267.5 79 Z " /><path fill="rgb(252,252,252)" stroke="rgb(252,252,252)" stroke-width="1" opacity="1" d="M 37.5 81 L 259 81.5 L 37.5 82 L 32.5 83 L 32.5 82 L 37.5 81 Z " /><path fill="rgb(252,252,252)" stroke="rgb(252,252,252)" stroke-width="1" opacity="1" d="M 261.5 81 L 263.5 82 L 265 81.5 L 263.5 84 L 261.5 81 Z " /><path fill="rgb(252,252,252)" stroke="rgb(252,252,252)" stroke-width="1" opacity="1" d="M 39.5 83 L 256 83.5 L 39.5 84 L 39.5 83 Z " /><path fill="rgb(252,252,252)" stroke="rgb(252,252,252)" stroke-width="1" opacity="1" d="M 257.5 83 L 261 83 Q 259.8 86 263.5 85 L 265 87.5 L 264 87.5 Q 264.9 84.5 260.5 86 L 257.5 83 Z " /><path fill="rgb(252,252,252)" stroke="rgb(252,252,252)" stroke-width="1" opacity="1" d="M 32.5 84 L 35 84.5 L 32.5 85 L 32.5 84 Z " /><path fill="rgb(252,252,252)" stroke="rgb(252,252,252)" stroke-width="1" opacity="1" d="M 269 84 Q 272 83 271 86 L 267.5 88 L 266.5 86 Q 270.3 87 269 84 Z " /><path fill="rgb(252,252,252)" stroke="rgb(252,252,252)" stroke-width="1" opacity="1" d="M 36.5 85 L 39.5 87 L 39.5 88 L 35.5 87 L 33.5 87 L 32 86.5 L 36.5 85 Z " /><path fill="rgb(252,252,252)" stroke="rgb(252,252,252)" stroke-width="1" opacity="1" d="M 40.5 85 L 258 85.5 L 40.5 86 L 40.5 85 Z " /><path fill="rgb(252,252,252)" stroke="rgb(252,252,252)" stroke-width="1" opacity="1" d="M 25.5 136 L 28.5 137 L 30.5 136 L 33 136.5 L 31 139.5 L 30 139.5 Q 30.8 137.3 28.5 138 L 27 137.5 L 28 139.5 L 27 142 Q 29.7 140.9 29 143.5 L 27 143.5 Q 27.8 145.8 25.5 145 L 27 142.5 L 26 141.5 L 27 139.5 L 25.5 136 Z " /><path fill="rgb(252,252,252)" stroke="rgb(252,252,252)" stroke-width="1" opacity="1" d="M 34.5 136 L 36.5 137 L 38.5 136 L 39.5 138 L 37.5 137 L 34.5 139 L 34.5 136 Z " /><path fill="rgb(252,252,252)" stroke="rgb(252,252,252)" stroke-width="1" opacity="1" d="M 265.5 136 L 268.5 137 L 270.5 136 L 272 138.5 L 270.5 142 L 271 138.5 L 270.5 137 L 268.5 138 L 267.5 137 L 265 138.5 L 265.5 136 Z " /><path fill="rgb(252,252,252)" stroke="rgb(252,252,252)" stroke-width="1" opacity="1" d="M 35.5 141 L 37.5 144 L 35.5 143 L 34 143.5 L 35.5 141 Z " /><path fill="rgb(252,252,252)" stroke="rgb(252,252,252)" stroke-width="1" opacity="1" d="M 39.5 141 L 257 141.5 L 39.5 142 L 39.5 141 Z " /><path fill="rgb(252,252,252)" stroke="rgb(252,252,252)" stroke-width="1" opacity="1" d="M 263.5 141 L 262.5 143 L 257.5 144 L 257.5 143 L 263.5 141 Z " /><path fill="rgb(252,252,252)" stroke="rgb(252,252,252)" stroke-width="1" opacity="1" d="M 265.5 143 L 266 144.5 L 264 145.5 L 265.5 143 Z " /><path fill="rgb(252,252,252)" stroke="rgb(252,252,252)" stroke-width="1" opacity="1" d="M 267.5 143 L 270 146.5 L 268 146.5 Q 268.8 148.8 266.5 148 L 264 149.5 L 265.5 147 L 268 145.5 L 267.5 143 Z " /><path fill="rgb(252,252,252)" stroke="rgb(252,252,252)" stroke-width="1" opacity="1" d="M 273.5 144 L 274 146.5 L 273 146.5 L 273.5 144 Z " /><path fill="rgb(252,252,252)" stroke="rgb(252,252,252)" stroke-width="1" opacity="1" d="M 275 144 L 277 144.5 L 275 151 Q 272 152 273 149 L 275 149 L 275 144 Z " /><path fill="rgb(252,252,252)" stroke="rgb(252,252,252)" stroke-width="1" opacity="1" d="M 278.5 144 L 280 146.5 L 278 145.5 L 278.5 144 Z " /><path fill="rgb(252,252,252)" stroke="rgb(252,252,252)" stroke-width="1" opacity="1" d="M 24.5 146 L 27 146.5 L 25.5 149 L 24.5 146 Z " /><path fill="rgb(252,252,252)" stroke="rgb(252,252,252)" stroke-width="1" opacity="1" d="M 30.5 146 Q 33.3 147.3 31 148.5 L 32 150.5 L 30 149.5 L 31 147.5 L 30.5 146 Z " /><path fill="rgb(252,252,252)" stroke="rgb(252,252,252)" stroke-width="1" opacity="1" d="M 277.5 147 L 280 153.5 L 279 156.5 L 280 158.5 L 279 158.5 L 277 153.5 L 279 153.5 Q 279.8 150.9 276.5 152 L 277 150.5 L 277.5 147 Z " /><path fill="rgb(252,252,252)" stroke="rgb(252,252,252)" stroke-width="1" opacity="1" d="M 269.5 148 L 269 149.5 L 270 151.5 L 268.5 155 L 264 152.5 L 267 151 Q 265.9 148.3 268.5 149 L 269.5 148 Z M 267 151 L 267 153 L 269 152 L 267 151 Z " /><path fill="rgb(252,252,252)" stroke="rgb(252,252,252)" stroke-width="1" opacity="1" d="M 26.5 150 L 29 157.5 L 27.5 160 L 25 158.5 L 24.5 160 L 24 158.5 L 27 154.5 L 24 153.5 L 26 153.5 L 26.5 150 Z " /><path fill="rgb(252,252,252)" stroke="rgb(252,252,252)" stroke-width="1" opacity="1" d="M 30.5 152 L 32.5 153 L 34 152.5 L 33.5 154 L 36.5 152 L 37 154 Q 40 152.8 39 156.5 Q 41.3 157.8 38.5 159 L 34 157 L 33.5 155 L 32.5 157 L 32 154 Q 28.8 155 30.5 152 Z M 36 154 L 36 157 Q 39 158 38 156 L 36 154 Z " /><path fill="rgb(252,252,252)" stroke="rgb(252,252,252)" stroke-width="1" opacity="1" d="M 259 152 L 263 154.5 Q 264.1 157.8 261.5 157 L 259 158.5 Q 258.3 156.3 260.5 157 L 262 154 L 259 154 Q 260.3 157 256.5 156 L 255.5 155 L 40 154.5 L 255.5 154 L 257.5 154 Q 260.1 154.7 259 152 Z " /><path fill="rgb(252,252,252)" stroke="rgb(252,252,252)" stroke-width="1" opacity="1" d="M 274.5 152 L 276 160 L 274 159.5 L 275 156.5 L 274 156.5 L 272.5 160 L 272 158.5 L 274.5 152 Z " /><path fill="rgb(252,252,252)" stroke="rgb(252,252,252)" stroke-width="1" opacity="1" d="M 266.5 155 L 267.5 157 Q 264.7 157.7 266.5 155 Z " /><path fill="rgb(252,252,252)" stroke="rgb(252,252,252)" stroke-width="1" opacity="1" d="M 264.5 157 L 265 159 L 263 158.5 L 264.5 157 Z " /><path fill="rgb(252,252,252)" stroke="rgb(252,252,252)" stroke-width="1" opacity="1" d="M 269 159 Q 271.7 157.9 271 160.5 L 272 162.5 L 271.5 165 Q 269.8 162.3 268 166.5 L 268.5 168 L 266 166.5 L 267.5 164 Q 264.2 162.9 265 165.5 L 264.5 168 Q 261.8 166.8 264 165.5 L 265 163.5 L 264.5 162 L 266.5 163 L 267.5 160 L 269 160.5 L 269 159 Z M 269 161 L 269 163 L 269 164 L 271 163 Q 272 160 269 161 Z " /><path fill="rgb(252,252,252)" stroke="rgb(252,252,252)" stroke-width="1" opacity="1" d="M 32.5 162 L 35.5 163 L 36.5 162 L 39.5 165 L 40.5 164 L 258.5 164 L 259 166 L 255.5 167 L 40.5 167 L 38.5 168 L 33 164.5 L 32.5 162 Z M 35 164 L 35 165 L 39 167 L 40 167 L 35 164 Z M 41 165 L 41 166 L 256 166 L 41 165 Z " /><path fill="rgb(252,252,252)" stroke="rgb(252,252,252)" stroke-width="1" opacity="1" d="M 261.5 162 L 263 165 Q 259.5 166.1 261.5 162 Z " /><path fill="rgb(252,252,252)" stroke="rgb(252,252,252)" stroke-width="1" opacity="1" d="M 32.5 166 L 35 167.5 L 33.5 168 L 32.5 166 Z " /><path fill="rgb(252,252,252)" stroke="rgb(252,252,252)" stroke-width="1" opacity="1" d="M 258.5 167 L 261 167.5 L 258.5 168 L 258.5 167 Z " /><path fill="rgb(252,252,252)" stroke="rgb(252,252,252)" stroke-width="1" opacity="1" d="M 28.5 216 L 30.5 217 L 33 216 L 33.5 218 L 34 216 L 37 216.5 L 34 218.5 L 34.5 220 L 31 217.5 L 30 220.5 L 31.5 220 L 33 220.5 L 28 224.5 L 26 227.5 L 26.5 229 Q 23.3 227.3 27 225.5 L 26.5 224 L 24 225.5 L 24 223.5 L 25 220.5 L 24.5 219 L 26 221.5 L 25 223.5 L 30 221.5 L 28 221 L 26 217 L 28.5 216 Z M 29 217 Q 27 220 30 219 L 29 217 Z " /><path fill="rgb(252,252,252)" stroke="rgb(252,252,252)" stroke-width="1" opacity="1" d="M 38 216 L 40 216.5 L 39.5 219 L 37.5 219 L 36 218.5 L 38 218 L 38 216 Z " /><path fill="rgb(252,252,252)" stroke="rgb(252,252,252)" stroke-width="1" opacity="1" d="M 262.5 216 L 267.5 218 L 267.5 216 L 269.5 217 Q 270.7 214.8 272 217.5 L 269.5 218 L 264.5 219 L 264.5 217 Q 261.5 217.5 262.5 216 Z " /><path fill="rgb(252,252,252)" stroke="rgb(252,252,252)" stroke-width="1" opacity="1" d="M 260.5 218 L 263 218.5 L 260.5 219 L 260.5 218 Z " /><path fill="rgb(252,252,252)" stroke="rgb(252,252,252)" stroke-width="1" opacity="1" d="M 269.5 219 L 269 220.5 L 269.5 222 L 272 220.5 L 270.5 224 L 268 220.5 L 269.5 219 Z " /><path fill="rgb(252,252,252)" stroke="rgb(252,252,252)" stroke-width="1" opacity="1" d="M 35.5 222 L 36.5 224 L 35.5 222 Z " /><path fill="rgb(252,252,252)" stroke="rgb(252,252,252)" stroke-width="1" opacity="1" d="M 38.5 222 L 39.5 224 Q 36.7 224.7 38.5 222 Z " /><path fill="rgb(252,252,252)" stroke="rgb(252,252,252)" stroke-width="1" opacity="1" d="M 257.5 222 L 262.5 223 L 263.5 222 L 267 225.5 L 265 226 L 264.5 228 L 264 226.5 L 265 224.5 Q 263.8 221.8 262.5 224 L 257.5 223 L 256 223.5 L 257.5 222 Z " /><path fill="rgb(252,252,252)" stroke="rgb(252,252,252)" stroke-width="1" opacity="1" d="M 275 224 L 277 224.5 L 274 226.5 L 275 224 Z " /><path fill="rgb(252,252,252)" stroke="rgb(252,252,252)" stroke-width="1" opacity="1" d="M 278.5 225 L 280 229.5 L 279 229.5 L 278.5 225 Z " /><path fill="rgb(252,252,252)" stroke="rgb(252,252,252)" stroke-width="1" opacity="1" d="M 268.5 226 L 269.5 230 L 266.5 232 L 266.5 230 L 265 229.5 L 268.5 226 Z " /><path fill="rgb(252,252,252)" stroke="rgb(252,252,252)" stroke-width="1" opacity="1" d="M 276.5 228 L 277 231.5 L 274.5 236 L 273 232.5 L 273 230.5 L 273.5 229 L 275.5 232 L 276.5 228 Z " /><path fill="rgb(252,252,252)" stroke="rgb(252,252,252)" stroke-width="1" opacity="1" d="M 29.5 229 L 32 229.5 Q 29.8 230.8 32.5 232 L 35 232 Q 33.9 234.7 36.5 234 L 36.5 235 L 32.5 233 L 33 234.5 Q 32.3 236.8 34.5 236 L 36.5 237 L 39 236 L 39.5 234 L 40 235.5 L 40 237.5 L 38.5 240 L 33.5 237 L 32 237.5 L 32.5 236 L 30 235.5 L 32 234.5 L 29 232.5 L 30 230.5 L 29.5 229 Z M 39 237 L 37 239 L 39 239 L 39 237 Z " /><path fill="rgb(252,252,252)" stroke="rgb(252,252,252)" stroke-width="1" opacity="1" d="M 278.5 231 L 280 233.5 L 279 233.5 L 278.5 231 Z " /><path fill="rgb(252,252,252)" stroke="rgb(252,252,252)" stroke-width="1" opacity="1" d="M 25.5 232 Q 29 234 24.5 236 L 25 234.5 L 25.5 232 Z " /><path fill="rgb(252,252,252)" stroke="rgb(252,252,252)" stroke-width="1" opacity="1" d="M 37.5 232 L 40 232.5 L 37.5 233 L 37.5 232 Z " /><path fill="rgb(252,252,252)" stroke="rgb(252,252,252)" stroke-width="1" opacity="1" d="M 268.5 232 Q 271.3 233.3 269 234.5 L 268.5 236 L 268 234 L 266 234.5 L 267 237 L 265 237.5 Q 267.3 238.8 264.5 240 L 264 237.5 L 265.5 235 L 264 234.5 L 268.5 232 Z " /><path fill="rgb(252,252,252)" stroke="rgb(252,252,252)" stroke-width="1" opacity="1" d="M 277.5 233 L 278 236.5 L 276 237.5 L 277.5 233 Z " /><path fill="rgb(252,252,252)" stroke="rgb(252,252,252)" stroke-width="1" opacity="1" d="M 26 236 L 28 236.5 Q 25.2 238.5 26 243 Q 29.7 244.3 28 238.5 L 30 239.5 L 29 242 L 31.5 241 L 31.5 243 L 33.5 242 L 33.5 244 L 37 245.5 L 35 246 L 34.5 248 L 32.5 247 L 31 247.5 L 33 244.5 L 28.5 243 L 29.5 245 L 31 245.5 L 25.5 247 L 25.5 246 Q 27.8 246.8 27 244.5 L 25 243.5 L 24.5 245 L 24 243.5 L 25 239.5 L 24 237.5 L 25 237.5 L 25.5 239 L 26 236 Z " /><path fill="rgb(252,252,252)" stroke="rgb(252,252,252)" stroke-width="1" opacity="1" d="M 279.5 236 L 280 237.5 L 278.5 240 L 278 238.5 L 279.5 236 Z " /><path fill="rgb(252,252,252)" stroke="rgb(252,252,252)" stroke-width="1" opacity="1" d="M 271.5 237 L 274 237 Q 272.9 239.7 275.5 239 L 275.5 240 Q 272.2 241.1 273 238.5 L 272 238.5 L 271.5 241 L 270 238.5 L 271.5 237 Z " /><path fill="rgb(252,252,252)" stroke="rgb(252,252,252)" stroke-width="1" opacity="1" d="M 269.5 241 L 270.5 243 L 269.5 241 Z " /><path fill="rgb(252,252,252)" stroke="rgb(252,252,252)" stroke-width="1" opacity="1" d="M 38 243 L 257.5 243 L 259.5 244 L 261.5 244 L 264.5 243 L 266.5 243 L 268 243.5 L 267.5 246 L 265.5 245 L 263.5 245 L 262 245.5 Q 264.3 246.8 261.5 248 L 261 245 Q 257.3 243.5 258 246.5 L 258.5 248 L 257.5 247 L 40 246.5 L 256.5 246 L 258 244.5 L 40.5 244 L 38 245 L 38 243 Z " /><path fill="rgb(252,252,252)" stroke="rgb(252,252,252)" stroke-width="1" opacity="1" d="M 269.5 246 L 272 246.5 Q 269.9 249.8 269.5 246 Z " /><path fill="rgb(255,255,255)" stroke="rgb(255,255,255)" stroke-width="1" opacity="1" d="M 0 0 L 300 0 L 300 300 L 0 300 L 0 0 Z M 37 56 L 33 58 L 27 62 L 29 62 L 30 62 Q 26 64 27 69 L 24 71 L 28 74 L 26 77 L 29 76 L 28 78 L 38 82 L 259 82 L 261 81 L 264 84 L 263 82 L 265 82 L 272 77 L 275 71 L 274 66 L 274 64 Q 275 61 273 62 L 271 59 L 269 58 Q 265 59 266 57 L 264 56 L 262 57 L 260 56 L 258 57 L 39 57 L 37 56 Z M 277 56 L 279 59 Q 281 60 280 57 L 277 56 Z M 272 58 L 272 59 L 276 61 L 276 59 L 272 58 Z M 276 61 L 277 64 Q 276 66 279 65 L 279 63 Q 280 59 276 61 Z M 27 62 L 26 65 L 27 65 L 27 62 Z M 276 64 L 275 67 L 276 67 L 276 64 Z M 277 68 Q 276 71 279 70 Q 280 67 277 68 Z M 275 73 L 275 76 Q 278 75 275 73 Z M 279 74 L 278 77 L 279 77 L 279 74 Z M 274 76 Q 269 78 273 80 L 274 78 L 274 76 Z M 276 76 L 275 80 L 276 80 L 276 76 Z M 269 80 L 268 82 L 266 83 L 266 84 L 270 83 L 269 80 Z M 33 82 L 33 83 L 37 83 L 33 82 Z M 40 83 L 40 84 L 256 84 L 40 83 Z M 258 83 Q 258 87 264 86 L 264 85 Q 260 86 261 83 L 258 83 Z M 33 84 L 33 85 L 35 85 L 33 84 Z M 269 84 Q 268 87 271 86 Q 272 83 269 84 Z M 37 85 L 32 87 L 35 88 L 38 87 Q 39 84 37 85 Z M 41 85 L 41 86 L 258 86 L 41 85 Z M 267 86 Q 267 90 269 87 L 267 86 Z M 33 136 L 31 138 L 33 138 L 33 136 Z M 36 137 L 30 142 L 28 142 L 28 144 L 25 149 L 27 149 L 26 151 Q 25 155 28 157 Q 27 159 30 158 L 29 160 L 36 162 L 36 163 Q 32 162 33 165 L 35 164 L 39 165 L 37 163 L 39 162 L 41 162 L 257 162 L 258 163 L 260 162 Q 262 161 261 165 Q 264 166 263 164 L 263 162 L 265 163 L 269 160 L 271 161 L 270 159 L 273 155 Q 272 150 275 151 Q 276 148 273 149 L 274 145 L 273 145 L 271 141 L 263 137 L 261 138 L 41 138 L 39 138 L 36 137 Z M 27 143 L 25 145 L 27 145 L 27 143 Z M 275 144 L 276 149 L 277 145 L 275 144 Z M 279 144 L 278 146 L 280 147 L 279 144 Z M 278 147 L 277 151 L 277 152 L 279 152 L 278 147 Z M 275 152 L 274 156 L 275 156 L 275 152 Z M 278 153 L 278 157 L 279 157 L 278 153 Z M 27 156 L 25 158 L 28 160 L 27 156 Z M 276 156 L 274 160 L 276 160 L 276 156 Z M 269 161 L 266 163 L 266 164 L 269 163 L 269 161 Z M 41 164 L 41 165 L 256 165 L 259 166 L 259 164 L 41 164 Z M 269 164 L 267 167 L 270 165 L 269 164 Z M 41 166 L 41 167 L 256 167 L 41 166 Z M 259 167 L 259 168 L 261 168 L 259 167 Z M 32 216 L 33 218 Q 34 215 32 216 Z M 34 216 L 35 218 L 37 217 L 34 216 Z M 38 216 L 38 218 L 40 217 L 38 216 Z M 263 216 L 263 217 L 265 217 L 263 216 Z M 26 217 Q 25 220 28 219 Q 29 216 26 217 Z M 30 217 L 31 219 Q 32 216 30 217 Z M 266 217 Q 264 220 263 218 L 260 219 L 257 218 L 256 219 L 41 219 L 38 218 L 32 220 L 27 226 L 27 228 L 26 230 L 24 231 L 26 232 L 25 235 L 27 235 L 26 237 L 27 239 L 28 237 L 28 243 L 31 244 L 33 244 L 29 242 L 30 240 L 36 243 L 38 243 L 38 245 L 41 244 L 258 244 L 259 243 L 260 244 L 258 245 L 261 245 L 262 248 Q 264 247 262 246 L 264 245 L 262 244 L 262 243 L 265 244 L 265 242 L 271 239 L 272 241 L 272 239 L 273 239 Q 272 241 276 240 L 276 239 Q 273 240 274 237 L 272 237 L 273 234 L 273 232 L 275 232 L 271 225 L 271 222 L 270 222 L 269 221 L 268 221 L 265 220 L 268 219 L 266 217 Z M 28 219 Q 27 222 30 221 Q 31 218 28 219 Z M 275 224 L 275 226 L 277 225 L 275 224 Z M 279 225 L 279 230 L 280 230 L 279 225 Z M 277 228 L 276 232 L 277 232 L 277 228 Z M 276 232 L 274 234 L 275 236 L 276 234 L 276 232 Z M 278 233 L 276 238 L 278 237 L 278 233 Z M 26 239 L 25 243 L 26 243 L 26 239 Z M 27 243 L 27 246 L 31 246 L 27 243 Z M 267 243 L 266 245 L 268 244 L 267 243 Z M 33 245 L 32 247 L 35 248 L 35 246 L 33 245 Z M 258 245 L 257 246 L 40 247 L 258 247 L 258 245 Z M 270 246 Q 270 250 272 247 L 270 246 Z " /><path fill="rgb(255,255,255)" stroke="rgb(255,255,255)" stroke-width="1" opacity="1" d="M 36.5 60 L 38.5 61 L 39.5 60 L 255.5 60 L 255.5 61 L 40 61.5 L 257 62 Q 255.7 58.3 261.5 60 L 264.5 62 L 266.5 62 Q 268.8 61.3 268 63.5 L 269.5 69 L 271 68.5 L 267 74.5 L 267.5 76 Q 264.6 78.6 258.5 78 L 256.5 77 L 255.5 78 L 40.5 78 L 37.5 77 Q 36 79.5 34.5 76 L 32 74.5 L 32.5 73 Q 30.3 73.8 31 71.5 L 32 69.5 L 30 69.5 L 30.5 67 L 32 66.5 L 31 64 L 38 61.5 L 36.5 60 Z M 260 61 L 260 62 L 262 62 L 260 61 Z M 38 62 L 38 64 L 40 63 L 38 62 Z M 257 63 L 257 64 L 259 64 L 257 63 Z M 265 64 L 264 67 L 265 67 L 265 64 Z M 268 64 L 267 69 L 268 69 L 268 64 Z M 266 67 L 265 71 L 266 71 L 266 67 Z M 267 71 L 267 74 Q 270 73 267 71 Z M 258 72 L 259 74 L 263 74 L 258 72 Z M 41 74 L 41 75 L 258 75 L 41 74 Z M 262 75 L 262 76 L 264 76 L 262 75 Z M 259 76 L 259 77 L 261 77 L 259 76 Z " /><path fill="rgb(255,255,255)" stroke="rgb(255,255,255)" stroke-width="1" opacity="1" d="M 36.5 141 L 39.5 142 L 256.5 142 Q 257.8 139.8 262.5 141 L 267 143.5 L 270 147.5 L 270 149.5 L 269 151.5 Q 271.5 153 268 154.5 L 267.5 156 L 266 155.5 L 265.5 158 Q 264 155.5 262.5 159 L 260 158.5 L 260.5 157 L 259 157 L 258.5 159 L 39.5 159 L 36.5 157 L 36.5 159 L 33 156.5 L 33.5 155 L 34 157 Q 36.7 158.1 36 155.5 L 30 151.5 L 31 148.5 L 31 146.5 L 34.5 142 L 36.5 143 L 36.5 141 Z M 260 142 L 260 143 L 263 143 L 260 142 Z M 268 146 L 264 149 L 265 150 L 268 148 L 268 146 Z M 267 149 Q 266 152 269 151 Q 270 148 267 149 Z M 266 151 L 264 153 L 268 154 L 267 153 Q 268 150 266 151 Z M 37 152 L 35 154 L 37 154 L 37 152 Z M 259 152 L 259 154 L 262 154 L 259 152 Z M 38 154 L 38 157 L 39 157 Q 40 153 38 154 Z M 41 154 L 41 155 L 256 155 L 41 154 Z M 258 154 L 256 156 L 259 156 Q 260 153 258 154 Z M 263 154 L 261 157 L 263 157 L 263 154 Z " /><path fill="rgb(255,255,255)" stroke="rgb(255,255,255)" stroke-width="1" opacity="1" d="M 36.5 222 L 39.5 224 L 39.5 222 L 256.5 222 L 259.5 223 L 262.5 222 L 268 225.5 L 269 227.5 L 268 230 Q 271 228.8 270 232.5 L 266.5 238 L 264.5 237 L 264 240 L 39.5 240 L 37.5 239 L 35.5 240 L 31 236.5 L 33 236 L 32.5 234 L 30.5 235 L 30.5 234 L 33.5 233 L 35 233.5 Q 35.8 230.9 32.5 232 L 31 231.5 L 30.5 233 L 29 230.5 L 32 224 L 36.5 222 Z M 261 223 L 261 224 L 263 224 L 261 223 Z M 266 224 Q 264 227 267 226 L 266 224 Z M 267 228 L 265 230 L 267 230 L 267 228 Z M 38 232 L 38 233 L 40 233 L 38 232 Z M 266 233 L 265 235 L 268 234 L 266 233 Z M 267 235 L 265 237 L 267 237 L 267 235 Z M 38 236 L 35 238 Q 37 241 39 237 L 38 236 Z " /><path fill="rgb(40,40,40)" stroke="rgb(40,40,40)" stroke-width="1" opacity="1" d="M 36.5 57 L 263.5 57 L 271 61.5 Q 274.2 64.8 273 72.5 L 269.5 78 L 262.5 81 L 37.5 81 L 30 76.5 Q 26.2 73.3 28 64.5 L 32.5 59 L 36.5 57 Z M 38 59 L 34 61 L 30 66 L 30 73 L 32 76 L 39 79 L 262 79 L 269 76 L 271 72 Q 272 65 269 63 L 264 59 L 38 59 Z " /><path fill="rgb(40,40,40)" stroke="rgb(40,40,40)" stroke-width="1" opacity="1" d="M 37.5 138 L 263.5 138 L 272 144.5 L 273 152.5 L 267.5 160 L 263.5 162 L 36.5 162 L 28 155.5 L 27 147.5 Q 28.4 141.4 33.5 139 L 37.5 138 Z M 38 140 L 35 141 L 29 149 L 30 155 L 38 160 L 262 160 L 266 159 L 271 152 L 270 146 L 266 141 L 262 140 L 38 140 Z " /><path fill="rgb(40,40,40)" stroke="rgb(40,40,40)" stroke-width="1" opacity="1" d="M 37.5 219 L 261.5 219 Q 268.1 219.9 271 224.5 Q 273.5 228 272 235.5 L 267.5 241 L 263.5 243 L 36.5 243 L 29 238.5 Q 25.8 235.2 27 227.5 L 33.5 220 L 37.5 219 Z M 38 221 L 35 222 L 29 229 Q 28 235 31 238 L 38 241 L 263 241 L 267 239 L 270 235 L 270 228 L 268 224 L 261 221 L 38 221 Z " /><path fill="rgb(170,170,170)" stroke="rgb(170,170,170)" stroke-width="1" opacity="1" d="M 267.5 61 L 268.5 63 L 267.5 61 Z " /><path fill="rgb(170,170,170)" stroke="rgb(170,170,170)" stroke-width="1" opacity="1" d="M 27.5 66 L 28 71.5 L 27 71.5 L 27.5 66 Z " /><path fill="rgb(170,170,170)" stroke="rgb(170,170,170)" stroke-width="1" opacity="1" d="M 38.5 78 L 262 78.5 L 38.5 79 L 38.5 78 Z " /><path fill="rgb(170,170,170)" stroke="rgb(170,170,170)" stroke-width="1" opacity="1" d="M 31.5 140 L 29.5 143 L 31.5 140 Z " /><path fill="rgb(170,170,170)" stroke="rgb(170,170,170)" stroke-width="1" opacity="1" d="M 37.5 140 L 262 140.5 L 37.5 141 L 37.5 140 Z " /><path fill="rgb(170,170,170)" stroke="rgb(170,170,170)" stroke-width="1" opacity="1" d="M 268.5 140 L 270.5 143 L 268.5 140 Z " /><path fill="rgb(170,170,170)" stroke="rgb(170,170,170)" stroke-width="1" opacity="1" d="M 29.5 157 L 31.5 160 L 29.5 157 Z " /><path fill="rgb(170,170,170)" stroke="rgb(170,170,170)" stroke-width="1" opacity="1" d="M 270.5 157 L 269.5 159 L 270.5 157 Z " /><path fill="rgb(170,170,170)" stroke="rgb(170,170,170)" stroke-width="1" opacity="1" d="M 37.5 159 L 262 159.5 L 37.5 160 L 37.5 159 Z " /><path fill="rgb(170,170,170)" stroke="rgb(170,170,170)" stroke-width="1" opacity="1" d="M 31.5 221 L 28.5 225 L 31.5 221 Z " /><path fill="rgb(170,170,170)" stroke="rgb(170,170,170)" stroke-width="1" opacity="1" d="M 37.5 221 L 261 221.5 L 37.5 222 L 37.5 221 Z " /><path fill="rgb(170,170,170)" stroke="rgb(170,170,170)" stroke-width="1" opacity="1" d="M 272.5 229 L 273 233.5 L 272 233.5 L 272.5 229 Z " /><path fill="rgb(170,170,170)" stroke="rgb(170,170,170)" stroke-width="1" opacity="1" d="M 31.5 237 L 32.5 239 L 31.5 237 Z " /><path fill="rgb(192,192,192)" stroke="rgb(192,192,192)" stroke-width="1" opacity="1" d="M 39.5 59 L 262 59.5 L 39.5 60 L 39.5 59 Z " /><path fill="rgb(192,192,192)" stroke="rgb(192,192,192)" stroke-width="1" opacity="1" d="M 273.5 66 L 274 70.5 L 273 70.5 L 273.5 66 Z " /><path fill="rgb(192,192,192)" stroke="rgb(192,192,192)" stroke-width="1" opacity="1" d="M 269.5 239 L 268.5 241 L 269.5 239 Z " /><path fill="rgb(192,192,192)" stroke="rgb(192,192,192)" stroke-width="1" opacity="1" d="M 38.5 240 L 261 240.5 L 38.5 241 L 38.5 240 Z " /></svg>