<?xml version="1.0" encoding="UTF-8"?>
<svg version="1.1" viewBox="0 0 1200 1200" width="300" height="300" xmlns="http://www.w3.org/2000/svg">
<path transform="translate(0)" d="m0 0h1200v1200h-1200z" fill="#FEFEFE"/>
<path transform="translate(575,79)" d="m0 0h49l33 4 27 6 20 6 21 8 20 9 21 11 20 13 19 14 13 11 12 11 14 14 7 8 12 15 13 19 9 15 11 20 11 25 9 27 6 24 5 32 1 10 1 31-2 31-4 27-6 26-11 33-11 24-11 21-9 14-12 17-8 10-12 14-15 16-8 7-14 12-13 10-15 10-20 12-22 11-25 10-25 8-32 7-33 4h-40l-21-2-29-5-24-6-24-8-23-10-20-10-18-11-16-11-9-7-11-9-11-10-8-7-14-15-11-13-13-18-10-15-10-18-8-16-9-21-8-24-6-24-5-30-2-23v-28l2-24 4-27 6-25 7-23 9-22 9-19 10-18 12-18 12-16 11-13 9-10 16-16 11-9 12-10 14-10 15-10 24-13 20-9 21-8 25-7 23-5 21-3z" fill="#4D3729"/>
<path transform="translate(387,255)" d="m0 0h22l14 4 11 6 12 11 9 14 7 14 5-4 7-8 8-8 14-10 19-10 20-6 11-2 11-1h25l16 4 14 7 11 9 8 10 8 15 4 10 26-26 11-8 13-8 13-6 18-5 16-2h22l17 3 17 7 14 10 7 7 7 11 4 11 2 11v18l-4 27-9 36-9 28-10 30-13 36-4 17-1 7v12l3 6 3 2h12l14-5 9-7 8-9 7-11 8-16 6-14 5-15 5-5 3-2h11l6 3 1 1-1 10-5 16-7 17-8 14-9 12-12 13-10 9-11 7-10 4-12 3h-19l-15-4-11-6-11-9-7-10-5-13-1-13 4-20 19-59 18-59 6-22 2-13v-15l-2-12-5-12-5-5-10-5-7-1h-14l-14 3-11 4-15 8-14 10-10 9-9 10-10 15-8 16-5 15-12 50-17 66-13 49-6 12-4 5-6 4-10 3h-11l-8-4-7-8-2-5v-8l9-38 22-89 13-56 4-22v-18l-3-12-5-9-5-5-9-4-6-1h-14l-15 3-15 6-16 9-14 11-9 9-9 12-8 13-7 15-5 17-9 38-17 66-14 54-5 12-7 8-10 5h-16l-9-3-5-5-3-6 1-10 8-38 16-65 18-71 8-34 2-13v-19l-4-9-5-5h-13l-8 5-7 9-10 18-7 17-8 31-3 4h-19l-4-3v-7l6-24 8-21 8-16 12-17 9-10 10-7 10-4z" fill="#FEFEFE"/>
<path transform="translate(330,818)" d="m0 0h22l9 4 7 6 1 2 5-1 16-6 17-4 6-1h23l9 4 7 6 5 10 2 7 1 9v109l-1 1h-41l-1-94-2-8-4-2-12 1-17 6-4 2-1 5v54l-1 36h-41l-1-1-1-98-5-5h-7l-15 4-9 4h-3l-1 95-1 1h-41v-143h32l1 1 1 7h6l24-8z" fill="#4D3729"/>
<path transform="translate(535,815)" d="m0 0h26l16 3 16 8 7 6 7 10 5 14 1 7v54l-3 13-6 12-10 10-10 6-17 5-7 1h-23l-16-3-12-5-8-6-5-5-4-5-5-10-3-13v-55l4-16 7-12 10-9 12-6 11-3z" fill="#4D3729"/>
<path transform="translate(717,818)" d="m0 0h21l10 4 8 8 4 8 3 16v109l-1 1h-42l-1-100-3-3-9-1-15 4-11 5-1 9-1 85-1 1h-41v-143h33l3 9 9-3 16-5 13-3z" fill="#4D3729"/>
<path transform="translate(846,777)" d="m0 0h2l1 40h29l3 1-2 33-1 1-29 1v69l2 5 2 1h12l10-1 2 10 3 21-2 2-21 4h-19l-12-3-10-6-7-9-2-5-1-6v-82l-19-1v-34l19-1v-33l7-2z" fill="#4D3729"/>
<path transform="translate(905,821)" d="m0 0h44v142l-1 1h-43z" fill="#4D3729"/>
<path transform="translate(713,1016)" d="m0 0 9 1 8 4 5 7 2 8v35l-3 10-5 6-11 4h-13l-9-1-1 28-1 1-20 2v-103h16l2 5 11-5z" fill="#4D3729"/>
<path transform="translate(613,1016)" d="m0 0h9l10 2 8 4 6 7 3 9v31l-3 8-5 7-6 4-11 3h-15l-12-4-6-5-4-6-3-12v-17l2-14 5-8 6-5 8-3z" fill="#4D3729"/>
<path transform="translate(434,986)" d="m0 0h4l1 60 10-19 5-9h22l-2 6-8 16-6 11 1 6 16 30v2h-22l-3-5-13-24-1 29h-21v-100l1-1z" fill="#4D3729"/>
<path transform="translate(528,1016)" d="m0 0 14 1 8 3 8 9 2 6 1 8v16l-1 1-7 1-30 1 1 7 3 3h17l12-1 2 2 1 6v8l-11 3-6 1h-17l-12-4-7-6-4-8-1-4v-31l4-11 9-8 6-2z" fill="#4D3729"/>
<path transform="translate(542,851)" d="m0 0h14l7 3 5 5 3 8v44l-3 9-7 6-6 2h-14l-7-3-6-7-2-8v-43l3-8 7-6z" fill="#FEFEFE"/>
<path transform="translate(918,758)" d="m0 0h17l8 4 5 6 1 3v19l-3 6-6 5-6 2h-14l-10-4-4-6-2-10 1-13 3-6 7-5z" fill="#4D3729"/>
<path transform="translate(761,1018)" d="m0 0h22v71h-22z" fill="#4D3729"/>
<path transform="translate(614,1034)" d="m0 0 8 1 5 3 1 3v25l-3 5-6 2-9-1-4-6-1-14 1-11 3-5z" fill="#FEFEFE"/>
<path transform="translate(705,1035)" d="m0 0 9 1 2 4v24l-2 7-2 1h-14l-3-2v-30l6-4z" fill="#FEFEFE"/>
<path transform="translate(766,987)" d="m0 0h12l4 4 1 3v8l-3 5-1 1h-14l-4-5v-11z" fill="#4D3729"/>
<path transform="translate(528,1033)" d="m0 0h7l5 4v7l-1 1h-15l-2-1v-5l4-5z" fill="#FEFEFE"/>
</svg>
